<?xml version="1.0" encoding="UTF-8" standalone="no"?>
<!-- Created with Inkscape (http://www.inkscape.org/) -->

<svg
   xmlns:osb="http://www.openswatchbook.org/uri/2009/osb"
   xmlns:dc="http://purl.org/dc/elements/1.1/"
   xmlns:cc="http://creativecommons.org/ns#"
   xmlns:rdf="http://www.w3.org/1999/02/22-rdf-syntax-ns#"
   xmlns:svg="http://www.w3.org/2000/svg"
   xmlns="http://www.w3.org/2000/svg"
   xmlns:sodipodi="http://sodipodi.sourceforge.net/DTD/sodipodi-0.dtd"
   xmlns:inkscape="http://www.inkscape.org/namespaces/inkscape"
   width="210mm"
   height="297mm"
   viewBox="0 0 744.09448819 1052.3622047"
   id="svg2"
   version="1.1"
   inkscape:version="0.91 r13725"
   sodipodi:docname="Dessin_PlaqueMRduino-V2.svg">
  <defs
     id="defs4">
    <inkscape:path-effect
       effect="spiro"
       id="path-effect4236"
       is_visible="true" />
    <linearGradient
       id="linearGradient5599"
       osb:paint="solid">
      <stop
         style="stop-color:#dfdfdf;stop-opacity:1;"
         offset="0"
         id="stop5601" />
    </linearGradient>
    <inkscape:path-effect
       effect="spiro"
       id="path-effect4160"
       is_visible="true" />
    <inkscape:path-effect
       effect="spiro"
       id="path-effect4156"
       is_visible="true" />
    <inkscape:path-effect
       effect="spiro"
       id="path-effect4236-2"
       is_visible="true" />
  </defs>
  <sodipodi:namedview
     id="base"
     pagecolor="#ffffff"
     bordercolor="#666666"
     borderopacity="1.0"
     inkscape:pageopacity="0.0"
     inkscape:pageshadow="2"
     inkscape:zoom="1.4567299"
     inkscape:cx="357.99004"
     inkscape:cy="734.95789"
     inkscape:document-units="mm"
     inkscape:current-layer="layer1"
     showgrid="true"
     inkscape:window-width="1366"
     inkscape:window-height="749"
     inkscape:window-x="-4"
     inkscape:window-y="-4"
     inkscape:window-maximized="1"
     fit-margin-left="0">
    <inkscape:grid
       type="xygrid"
       id="grid3336"
       units="mm"
       spacingx="3.5433071"
       spacingy="3.5433072"
       originx="0"
       originy="0" />
  </sodipodi:namedview>
  <metadata
     id="metadata7">
    <rdf:RDF>
      <cc:Work
         rdf:about="">
        <dc:format>image/svg+xml</dc:format>
        <dc:type
           rdf:resource="http://purl.org/dc/dcmitype/StillImage" />
        <dc:title />
      </cc:Work>
    </rdf:RDF>
  </metadata>
  <g
     inkscape:label="Calque 1"
     inkscape:groupmode="layer"
     id="layer1">
    <path
       style="opacity:1;fill:none;fill-opacity:1;stroke:#ff0000;stroke-width:0.35433072;stroke-linejoin:miter;stroke-miterlimit:4;stroke-dasharray:none;stroke-opacity:1"
       d="M 531.31903,343.70081 A 176.98834,176.98834 0 0 1 354.33069,520.68915 176.98834,176.98834 0 0 1 177.34235,343.70081 176.98834,176.98834 0 0 1 354.33069,166.71246 176.98834,176.98834 0 0 1 531.31903,343.70081 Z"
       id="path4164" />
    <path
       style="opacity:1;fill:none;fill-opacity:1;stroke:#ff0000;stroke-width:0.35299999;stroke-linejoin:miter;stroke-miterlimit:4;stroke-dasharray:none;stroke-opacity:1"
       d="m 331.65416,184.21964 a 4.2526116,4.2849474 0 0 1 -4.25261,4.28494 4.2526116,4.2849474 0 0 1 -4.25261,-4.28494 4.2526116,4.2849474 0 0 1 4.25261,-4.28495 4.2526116,4.2849474 0 0 1 4.25261,4.28495 z"
       id="path5628" />
    <path
       style="opacity:1;fill:none;fill-opacity:1;stroke:#ff0000;stroke-width:0.35433072;stroke-linejoin:miter;stroke-miterlimit:4;stroke-dasharray:none;stroke-opacity:1"
       d="m 275.0253,483.62909 a 4.2843041,4.2843041 0 0 1 -4.2843,4.2843 4.2843041,4.2843041 0 0 1 -4.28431,-4.2843 4.2843041,4.2843041 0 0 1 4.28431,-4.2843 4.2843041,4.2843041 0 0 1 4.2843,4.2843 z"
       id="path5628-8" />
    <path
       style="opacity:1;fill:none;fill-opacity:1;stroke:#ff0000;stroke-width:0.35433072;stroke-linejoin:miter;stroke-miterlimit:4;stroke-dasharray:none;stroke-opacity:1"
       d="m 442.26938,483.62909 a 4.2843041,4.2843041 0 0 1 -4.2843,4.2843 4.2843041,4.2843041 0 0 1 -4.28431,-4.2843 4.2843041,4.2843041 0 0 1 4.28431,-4.2843 4.2843041,4.2843041 0 0 1 4.2843,4.2843 z"
       id="path5628-8-3" />
    <path
       style="opacity:1;fill:none;fill-opacity:1;stroke:#ff0000;stroke-width:0.45341176;stroke-linejoin:miter;stroke-miterlimit:4;stroke-dasharray:none;stroke-opacity:1"
       d="m 454.91109,265.3937 a 5.4425799,5.4425886 0 0 1 -5.44259,5.44259 5.4425799,5.4425886 0 0 1 -5.44258,-5.44259 5.4425799,5.4425886 0 0 1 5.44258,-5.44258 5.4425799,5.4425886 0 0 1 5.44259,5.44258 z"
       id="path5628-8-3-0-6"
       inkscape:connector-curvature="0" />
    <path
       style="opacity:1;fill:none;fill-opacity:1;stroke:#ff0000;stroke-width:0.45341155;stroke-linejoin:miter;stroke-miterlimit:4;stroke-dasharray:none;stroke-opacity:1"
       d="m 302.19455,445.3937 a 5.4425824,5.4425802 0 0 1 -5.44259,5.44259 5.4425824,5.4425802 0 0 1 -5.44258,-5.44259 5.4425824,5.4425802 0 0 1 5.44258,-5.44258 5.4425824,5.4425802 0 0 1 5.44259,5.44258 z"
       id="path5628-8-3-0-0"
       inkscape:connector-curvature="0" />
    <path
       style="opacity:1;fill:none;fill-opacity:1;stroke:#ff0000;stroke-width:0.45025575;stroke-linejoin:miter;stroke-miterlimit:4;stroke-dasharray:none;stroke-opacity:1"
       d="m 401.05441,445.3937 a 5.4441601,5.4441565 0 0 1 -5.44417,5.44416 5.4441601,5.4441565 0 0 1 -5.44417,-5.44416 5.4441601,5.4441565 0 0 1 5.44417,-5.44417 5.4441601,5.4441565 0 0 1 5.44417,5.44417 z"
       id="path5628-8-3-0-6-1"
       inkscape:connector-curvature="0" />
    <rect
       style="opacity:0.97000002;fill:none;fill-opacity:1;stroke:#ff0000;stroke-width:0.35433072;stroke-linejoin:round;stroke-miterlimit:4;stroke-dasharray:none;stroke-opacity:1"
       id="rect4232"
       x="70.866142"
       y="361.41733"
       width="0"
       height="0"
       rx="0" />
    <path
       style="opacity:1;fill:none;fill-opacity:1;stroke:#ff0000;stroke-width:0.35433072;stroke-linejoin:miter;stroke-miterlimit:4;stroke-dasharray:none;stroke-opacity:1"
       d="m 283.63831,220.74474 17.36904,0 0,6.73912 -17.36904,0 z"
       id="rect4256"
       inkscape:connector-curvature="0" />
    <path
       style="opacity:1;fill:none;fill-opacity:1;stroke:#ff0000;stroke-width:0.35433072;stroke-linejoin:miter;stroke-miterlimit:4;stroke-dasharray:none;stroke-opacity:1"
       d="m 407.65405,220.74474 17.36905,0 0,6.73912 -17.36905,0 z"
       id="rect4256-2"
       inkscape:connector-curvature="0" />
    <path
       style="opacity:1;fill:none;fill-opacity:1;stroke:#ff0000;stroke-width:0.35433072;stroke-linejoin:miter;stroke-miterlimit:4;stroke-dasharray:none;stroke-opacity:1"
       d="m 407.65405,376.68213 17.36905,0 0,6.73912 -17.36905,0 z"
       id="rect4256-2-8"
       inkscape:connector-curvature="0" />
    <path
       style="opacity:1;fill:none;fill-opacity:1;stroke:#ff0000;stroke-width:0.35433072;stroke-linejoin:miter;stroke-miterlimit:4;stroke-dasharray:none;stroke-opacity:1"
       d="m 283.63831,376.68213 17.36904,0 0,6.73913 -17.36904,0 z"
       id="rect4256-25"
       inkscape:connector-curvature="0" />
    <g
       style="font-style:normal;font-weight:normal;font-size:12.5px;line-height:125%;font-family:Sans;letter-spacing:0px;word-spacing:0px;fill:#000000;fill-opacity:1;stroke:none;stroke-width:1px;stroke-linecap:butt;stroke-linejoin:miter;stroke-opacity:1"
       id="flowRoot4322" />
    <path
       style="opacity:1;fill:none;fill-opacity:1;stroke:#ff0000;stroke-width:0.42702311;stroke-linejoin:miter;stroke-miterlimit:4;stroke-dasharray:none;stroke-opacity:1"
       d="m 463.66745,280.10745 23.95471,0 0,70.49378 -23.95471,0 z"
       id="rect4256-2-1" />
    <path
       style="opacity:1;fill:none;fill-opacity:1;stroke:#ff0000;stroke-width:0.35304424;stroke-linejoin:miter;stroke-miterlimit:4;stroke-dasharray:none;stroke-opacity:1"
       d="m 385.57712,184.25197 a 4.2849474,4.2526116 0 0 1 -4.28494,4.25261 4.2849474,4.2526116 0 0 1 -4.28495,-4.25261 4.2849474,4.2526116 0 0 1 4.28495,-4.25261 4.2849474,4.2526116 0 0 1 4.28494,4.25261 z"
       id="path5628-3" />
  </g>
</svg>
